<mxfile host="65bd71144e">
    <diagram id="G2dBrbBJrOGCcl885US6" name="第 1 页">
        <mxGraphModel dx="351" dy="1038" grid="1" gridSize="10" guides="1" tooltips="1" connect="1" arrows="1" fold="1" page="1" pageScale="1" pageWidth="827" pageHeight="1169" math="0" shadow="0">
            <root>
                <mxCell id="0"/>
                <mxCell id="1" parent="0"/>
                <mxCell id="31" style="edgeStyle=none;html=1;entryX=0;entryY=0.5;entryDx=0;entryDy=0;" parent="1" source="29" target="30" edge="1">
                    <mxGeometry relative="1" as="geometry"/>
                </mxCell>
                <mxCell id="29" value="window1" style="rounded=0;whiteSpace=wrap;html=1;fontSize=16;" parent="1" vertex="1">
                    <mxGeometry x="1090" y="330" width="220" height="60" as="geometry"/>
                </mxCell>
                <mxCell id="34" value="发送方" style="text;html=1;align=center;verticalAlign=middle;whiteSpace=wrap;rounded=0;fontSize=16;fontStyle=1" parent="1" vertex="1">
                    <mxGeometry x="1170" y="290" width="60" height="30" as="geometry"/>
                </mxCell>
                <mxCell id="36" value="接收方" style="text;html=1;align=center;verticalAlign=middle;whiteSpace=wrap;rounded=0;fontSize=16;fontStyle=1" parent="1" vertex="1">
                    <mxGeometry x="1860" y="280" width="60" height="30" as="geometry"/>
                </mxCell>
                <mxCell id="37" value="发送信息" style="text;html=1;align=center;verticalAlign=middle;whiteSpace=wrap;rounded=0;fontSize=16;fontStyle=1" parent="1" vertex="1">
                    <mxGeometry x="1500" y="290" width="110" height="30" as="geometry"/>
                </mxCell>
                <mxCell id="38" value="可携带多个参数" style="text;html=1;align=center;verticalAlign=middle;whiteSpace=wrap;rounded=0;fontSize=16;fontStyle=1" parent="1" vertex="1">
                    <mxGeometry x="1480" y="320" width="150" height="30" as="geometry"/>
                </mxCell>
                <mxCell id="48" value="" style="strokeWidth=2;html=1;shape=mxgraph.flowchart.annotation_2;align=left;labelPosition=right;pointerEvents=1;rotation=90;" parent="1" vertex="1">
                    <mxGeometry x="1796.25" y="390" width="187.5" height="190" as="geometry"/>
                </mxCell>
                <mxCell id="41" value="判断消息类型" style="text;html=1;align=center;verticalAlign=middle;whiteSpace=wrap;rounded=0;fontSize=16;fontStyle=1" parent="1" vertex="1">
                    <mxGeometry x="1835" y="490" width="110" height="30" as="geometry"/>
                </mxCell>
                <mxCell id="30" value="window2" style="rounded=0;whiteSpace=wrap;html=1;fontSize=16;" parent="1" vertex="1">
                    <mxGeometry x="1780" y="330" width="220" height="60" as="geometry"/>
                </mxCell>
                <mxCell id="60" style="edgeStyle=none;html=1;" parent="1" source="50" target="59" edge="1">
                    <mxGeometry relative="1" as="geometry"/>
                </mxCell>
                <mxCell id="50" value="响应消息" style="text;html=1;align=center;verticalAlign=middle;whiteSpace=wrap;rounded=0;fontSize=16;fontStyle=1" parent="1" vertex="1">
                    <mxGeometry x="1930" y="580" width="110" height="30" as="geometry"/>
                </mxCell>
                <mxCell id="56" value="" style="edgeStyle=none;html=1;" parent="1" source="51" target="55" edge="1">
                    <mxGeometry relative="1" as="geometry"/>
                </mxCell>
                <mxCell id="51" value="普通消息" style="text;html=1;align=center;verticalAlign=middle;whiteSpace=wrap;rounded=0;fontSize=16;fontStyle=1" parent="1" vertex="1">
                    <mxGeometry x="1740" y="580" width="110" height="30" as="geometry"/>
                </mxCell>
                <mxCell id="58" value="" style="edgeStyle=none;html=1;" parent="1" source="55" target="57" edge="1">
                    <mxGeometry relative="1" as="geometry"/>
                </mxCell>
                <mxCell id="55" value="触发指定消息回调" style="whiteSpace=wrap;html=1;" parent="1" vertex="1">
                    <mxGeometry x="1722.5" y="675" width="145" height="60" as="geometry"/>
                </mxCell>
                <mxCell id="63" style="edgeStyle=none;html=1;entryX=0.5;entryY=1;entryDx=0;entryDy=0;exitX=0;exitY=0.5;exitDx=0;exitDy=0;" parent="1" source="57" target="29" edge="1">
                    <mxGeometry relative="1" as="geometry"/>
                </mxCell>
                <mxCell id="57" value="发送指定响应消息" style="whiteSpace=wrap;html=1;" parent="1" vertex="1">
                    <mxGeometry x="1722.5" y="865" width="145" height="60" as="geometry"/>
                </mxCell>
                <mxCell id="59" value="触发响应消息回调" style="whiteSpace=wrap;html=1;" parent="1" vertex="1">
                    <mxGeometry x="1912.5" y="675" width="145" height="60" as="geometry"/>
                </mxCell>
                <mxCell id="64" value="发送响应消息" style="text;html=1;align=center;verticalAlign=middle;whiteSpace=wrap;rounded=0;fontSize=16;fontStyle=1" parent="1" vertex="1">
                    <mxGeometry x="1380" y="675" width="110" height="30" as="geometry"/>
                </mxCell>
                <mxCell id="65" value="可携带一个参数" style="text;html=1;align=center;verticalAlign=middle;whiteSpace=wrap;rounded=0;fontSize=16;fontStyle=1" parent="1" vertex="1">
                    <mxGeometry x="1370" y="705" width="130" height="30" as="geometry"/>
                </mxCell>
            </root>
        </mxGraphModel>
    </diagram>
</mxfile>